<svg xmlns="http://www.w3.org/2000/svg" xmlns:xlink="http://www.w3.org/1999/xlink" id="Layer_1" x="0px" y="0px" width="1314.439px" height="395.2px" viewBox="0 0 1314.439 395.2" xml:space="preserve"><path fill-rule="evenodd" clip-rule="evenodd" fill="#FFFFFF" d="M196.538,395.263h-47.301c-17.278,0-31.416-14.136-31.416-31.417 v-55.82C135.788,343.25,162.391,372.059,196.538,395.263 M173.295,338.539c-26.902-59.876-17.909-111.561,34.453-153.341 C235.014,257.004,190.293,319.847,173.295,338.539z M284.637,117.89h79.143c17.281,0,31.417,14.135,31.417,31.417v96.719 c0,17.281-14.138,31.416-31.417,31.416h-86.407v86.404c0,17.279-14.138,31.417-31.416,31.417H207.49 c-14.422-19.433-25.793-38.169-33.94-56.17C246.407,291.973,286.779,220.726,284.637,117.89z"></path><path fill-rule="evenodd" clip-rule="evenodd" fill="#17A2B8" d="M148.455,136.776c-12.168,0-22.033,9.865-22.033,22.03 c0,12.168,9.865,22.032,22.033,22.032c12.165,0,22.029-9.864,22.029-22.032C170.484,146.641,160.62,136.776,148.455,136.776"></path><circle fill-rule="evenodd" clip-rule="evenodd" fill="#17A2B8" cx="227.201" cy="98.969" r="22.031"></circle><path fill-rule="evenodd" clip-rule="evenodd" fill="#17A2B8" d="M245.956,0.066c17.281,0,31.416,14.138,31.416,31.417v59.224 c-18.085,72.005-65.659,49.384-111.202,33.269c20.631,20.365,33.699,40.79,41.32,60.548 c-48.527,17.331-98.838,40.381-112.926-52.811c-7.322,56.593-3.422,104.847,10.4,145.729H31.416C14.138,277.441,0,263.304,0,246.025 v-96.719c0-17.279,14.135-31.417,31.416-31.417h86.405V31.483c0-17.282,14.136-31.417,31.416-31.417"></path><g>	<path fill="#FFFFFF" d="M457.212,285.441v-182.25h43.5l35,99l13.5,46.75h1.75l13.75-46.75l35-99h43.25v182.25h-26.5v-91.75l1-65.5  h-2l-19.75,60.75l-33.75,96.5h-23.75l-33.25-96l-20-61.25h-2l1,65.75v91.5H457.212z"></path>	<path fill="#FFFFFF" d="M733.208,287.691c-12.836,0-23.875-2.789-33.125-8.375c-9.25-5.582-16.293-13.457-21.125-23.625  c-4.836-10.164-7.25-22.082-7.25-35.75c0-14,2.414-26.164,7.25-36.5c4.832-10.332,11.789-18.289,20.875-23.875  c9.082-5.582,19.957-8.375,32.625-8.375c13.832,0,25.289,3.125,34.375,9.375c9.082,6.25,15.625,14.875,19.625,25.875  s5.5,23.668,4.5,38h-94c0.164,9.668,1.75,17.711,4.75,24.125c3,6.418,7.207,11.25,12.625,14.5  c5.414,3.25,11.707,4.875,18.875,4.875c8.664,0,15.707-1.914,21.125-5.75c5.414-3.832,9.039-8.914,10.875-15.25h24.5  c-1.336,8.5-4.586,15.793-9.75,21.875c-5.168,6.086-11.75,10.75-19.75,14S743.208,287.691,733.208,287.691z M697.208,210.191  l-2.5-3.25h73.5l-2.5,3.5c0.164-9.164-1.125-16.664-3.875-22.5c-2.75-5.832-6.668-10.125-11.75-12.875  c-5.086-2.75-10.961-4.125-17.625-4.125c-7,0-13.086,1.5-18.25,4.5c-5.168,3-9.25,7.418-12.25,13.25  C698.958,194.527,697.372,201.691,697.208,210.191z"></path>	<path fill="#FFFFFF" d="M866.954,287.691c-8,0-15.375-1.586-22.125-4.75s-12.543-7.664-17.375-13.5  c-4.836-5.832-8.543-12.957-11.125-21.375c-2.586-8.414-3.875-18.039-3.875-28.875c0-14.332,2.289-26.582,6.875-36.75  c4.582-10.164,10.957-17.957,19.125-23.375c8.164-5.414,17.664-8.125,28.5-8.125c7.332,0,14,1.168,20,3.5  c6,2.336,11.125,5.543,15.375,9.625c4.25,4.086,7.289,8.961,9.125,14.625h1.25v-75.5h25.75v182.25h-24.5l-1-25.75h-1.5  c-3,8.336-8.418,15.086-16.25,20.25C887.368,285.109,877.954,287.691,866.954,287.691z M875.704,266.441c8,0,14.75-1.832,20.25-5.5  c5.5-3.664,9.664-8.5,12.5-14.5c2.832-6,4.25-12.582,4.25-19.75v-15c0-7.332-1.461-14-4.375-20c-2.918-6-7.086-10.789-12.5-14.375  c-5.418-3.582-11.961-5.375-19.625-5.375c-7.836,0-14.543,1.918-20.125,5.75c-5.586,3.836-9.836,9.25-12.75,16.25  c-2.918,7-4.375,15.418-4.375,25.25c0,9.668,1.414,18.086,4.25,25.25c2.832,7.168,7,12.625,12.5,16.375  S867.868,266.441,875.704,266.441z"></path>	<path fill="#FFFFFF" d="M974.451,285.441v-132.25h24.5l1,26.25h1.5c3.832-9.332,9.832-16.375,18-21.125  c8.164-4.75,17.082-7.125,26.75-7.125c6.832,0,13.125,1,18.875,3s10.75,5.211,15,9.625c4.25,4.418,7.539,10.168,9.875,17.25  c2.332,7.086,3.5,15.711,3.5,25.875v78.5h-25.75v-73.25c0-9-1.086-16.457-3.25-22.375c-2.168-5.914-5.5-10.289-10-13.125  c-4.5-2.832-10.336-4.25-17.5-4.25c-7.5,0-14.043,1.836-19.625,5.5c-5.586,3.668-9.875,8.543-12.875,14.625  c-3,6.086-4.5,12.961-4.5,20.625v72.25H974.451z"></path>	<path fill="#FFFFFF" d="M1139.947,132.941c-4.336,0-7.918-1.164-10.75-3.5c-2.836-2.332-4.25-5.582-4.25-9.75  c0-4.164,1.414-7.414,4.25-9.75c2.832-2.332,6.414-3.5,10.75-3.5c4.332,0,7.914,1.168,10.75,3.5c2.832,2.336,4.25,5.586,4.25,9.75  c0,4.168-1.418,7.418-4.25,9.75C1147.861,131.777,1144.279,132.941,1139.947,132.941z M1126.947,285.441v-132.25h25.75v132.25  H1126.947z"></path>	<path fill="#FFFFFF" d="M1174.194,285.441l51.25-68.5l-46.25-63.75h30.25l30,43.25l3,4.75h1.25l2.75-4.75l29.75-43.25h29.25  l-45.5,63.25l50.25,69h-30.25l-33.75-48.25l-3.5-5.25h-1.25l-3.5,5.25l-35,48.25H1174.194z"></path></g><g></g><g></g><g></g><g></g><g></g><g></g></svg>